<svg width="18" height="18" viewBox="0 0 18 18" fill="none" xmlns="http://www.w3.org/2000/svg">
<path d="M7.46927 0.63405C8.44938 0.228074 9.55062 0.228075 10.5307 0.634051L13.8332 2.00199C14.8133 2.40796 15.592 3.18666 15.998 4.16677L17.3659 7.46927C17.7719 8.44938 17.7719 9.55062 17.3659 10.5307L15.998 13.8332C15.592 14.8133 14.8133 15.592 13.8332 15.998L10.5307 17.3659C9.55062 17.7719 8.44938 17.7719 7.46927 17.3659L4.16677 15.998C3.18666 15.592 2.40796 14.8133 2.00199 13.8332L0.63405 10.5307C0.228074 9.55062 0.228075 8.44938 0.634051 7.46927L2.00199 4.16677C2.40796 3.18666 3.18666 2.40796 4.16677 2.00199L7.46927 0.63405Z" fill="#68A3F4"/>
<path d="M7.46926 3.63405C8.44938 3.22808 9.55062 3.22807 10.5307 3.63405L11.7119 4.12331C12.692 4.52928 13.4707 5.30798 13.8767 6.28809L14.3659 7.46926C14.7719 8.44938 14.7719 9.55062 14.3659 10.5307L13.8767 11.7119C13.4707 12.692 12.692 13.4707 11.7119 13.8767L10.5307 14.3659C9.55062 14.7719 8.44938 14.7719 7.46927 14.3659L6.28809 13.8767C5.30798 13.4707 4.52928 12.692 4.12331 11.7119L3.63405 10.5307C3.22808 9.55062 3.22807 8.44938 3.63405 7.46927L4.12331 6.28809C4.52928 5.30798 5.30798 4.52928 6.28809 4.12331L7.46926 3.63405Z" fill="#43E3FF"/>
</svg>
